<?xml version="1.0" encoding="UTF-8"?>
<svg xmlns="http://www.w3.org/2000/svg" xmlns:xlink="http://www.w3.org/1999/xlink" viewBox="0 0 18 18" width="18px" height="18px">
<g id="surface31303859">
<path style="fill-rule:nonzero;fill:rgb(93.333334%,93.333334%,93.333334%);fill-opacity:1;stroke-width:30;stroke-linecap:butt;stroke-linejoin:round;stroke:rgb(93.333334%,93.333334%,93.333334%);stroke-opacity:1;stroke-miterlimit:10;" d="M 160.13675 37.836919 C 161.039808 40.030059 160.566777 42.524219 158.846667 44.201326 L 67.121794 135.9262 C 64.885651 138.162343 61.273419 138.162343 58.994273 135.9262 L 18.872704 95.80463 C 17.367608 94.342537 16.765569 92.192399 17.281602 90.214272 C 17.840638 88.193143 19.388737 86.645044 21.409867 86.086008 C 23.430996 85.569975 25.538131 86.172014 27.000225 87.67711 L 63.079535 123.75642 L 150.76215 36.073806 C 151.794216 34.998737 153.213307 34.396698 154.6754 34.353696 C 157.040552 34.26769 159.233692 35.643778 160.13675 37.836919 Z M 160.13675 37.836919 " transform="matrix(0.0908372,0,0,0.0908372,1.188,1.188)"/>
</g>
</svg>
